REM DIRINDEX 1\2,1\3,1\4,1\5,1\6
REM DIRNAME cjc030,folder01,folder02,folder03,folder04,folder05
TITLE ""
FILE "Disc6Track20.mp3" MP3
  TRACK 01 AUDIO
    TITLE "3:cjc030_11027"
    INDEX 01 00:00:00
  TRACK 02 AUDIO
    TITLE "0:"
    INDEX 01 00:01:03
  TRACK 03 AUDIO
    TITLE "4:cjc030_11028"
    INDEX 01 00:01:17
  TRACK 04 AUDIO
    TITLE "0:"
    INDEX 01 00:05:34
  TRACK 05 AUDIO
    TITLE "5:cjc030_11029"
    INDEX 01 00:05:42
  TRACK 06 AUDIO
    TITLE "0:"
    INDEX 01 00:06:53
  TRACK 07 AUDIO
    TITLE "6:cjc030_11030"
    INDEX 01 00:06:63
  TRACK 08 AUDIO
    TITLE "0:"
    INDEX 01 00:09:51
  TRACK 09 AUDIO
    TITLE "3:cjc030_11031"
    INDEX 01 00:10:25
  TRACK 10 AUDIO
    TITLE "0:"
    INDEX 01 00:11:39
  TRACK 11 AUDIO
    TITLE "4:cjc030_11032"
    INDEX 01 00:11:50
  TRACK 12 AUDIO
    TITLE "0:"
    INDEX 01 00:12:44
  TRACK 13 AUDIO
    TITLE "5:cjc030_11033"
    INDEX 01 00:12:56
  TRACK 14 AUDIO
    TITLE "0:"
    INDEX 01 00:13:69
  TRACK 15 AUDIO
    TITLE "3:cjc030_11034"
    INDEX 01 00:14:45
  TRACK 16 AUDIO
    TITLE "0:"
    INDEX 01 00:15:48
  TRACK 17 AUDIO
    TITLE "4:cjc030_11035"
    INDEX 01 00:15:56
  TRACK 18 AUDIO
    TITLE "0:"
    INDEX 01 00:17:43
  TRACK 19 AUDIO
    TITLE "5:cjc030_11036"
    INDEX 01 00:17:51
  TRACK 20 AUDIO
    TITLE "0:"
    INDEX 01 00:18:56
  TRACK 21 AUDIO
    TITLE "6:cjc030_11037"
    INDEX 01 00:18:68
  TRACK 22 AUDIO
    TITLE "0:"
    INDEX 01 00:22:50
  TRACK 23 AUDIO
    TITLE "3:cjc030_11038"
    INDEX 01 00:23:18
  TRACK 24 AUDIO
    TITLE "0:"
    INDEX 01 00:24:43
  TRACK 25 AUDIO
    TITLE "4:cjc030_11039"
    INDEX 01 00:24:53
  TRACK 26 AUDIO
    TITLE "0:"
    INDEX 01 00:25:48
  TRACK 27 AUDIO
    TITLE "5:cjc030_11040"
    INDEX 01 00:25:56
  TRACK 28 AUDIO
    TITLE "0:"
    INDEX 01 00:27:08
  TRACK 29 AUDIO
    TITLE "6:cjc030_11041"
    INDEX 01 00:27:18
  TRACK 30 AUDIO
    TITLE "0:"
    INDEX 01 00:30:20
  TRACK 31 AUDIO
    TITLE "3:cjc030_11042"
    INDEX 01 00:30:69
  TRACK 32 AUDIO
    TITLE "0:"
    INDEX 01 00:31:73
  TRACK 33 AUDIO
    TITLE "4:cjc030_11043"
    INDEX 01 00:32:05
  TRACK 34 AUDIO
    TITLE "0:"
    INDEX 01 00:33:40
  TRACK 35 AUDIO
    TITLE "5:cjc030_11044"
    INDEX 01 00:33:42
  TRACK 36 AUDIO
    TITLE "0:"
    INDEX 01 00:34:45
  TRACK 37 AUDIO
    TITLE "6:cjc030_11045"
    INDEX 01 00:34:55
  TRACK 38 AUDIO
    TITLE "0:"
    INDEX 01 00:36:33
  TRACK 39 AUDIO
    TITLE "3:cjc030_11046"
    INDEX 01 00:37:03
  TRACK 40 AUDIO
    TITLE "0:"
    INDEX 01 00:38:14
  TRACK 41 AUDIO
    TITLE "4:cjc030_11047"
    INDEX 01 00:38:24
  TRACK 42 AUDIO
    TITLE "0:"
    INDEX 01 00:40:01
  TRACK 43 AUDIO
    TITLE "5:cjc030_11048"
    INDEX 01 00:40:11
  TRACK 44 AUDIO
    TITLE "0:"
    INDEX 01 00:41:20
  TRACK 45 AUDIO
    TITLE "3:cjc030_11049"
    INDEX 01 00:41:73
  TRACK 46 AUDIO
    TITLE "0:"
    INDEX 01 00:43:11
  TRACK 47 AUDIO
    TITLE "4:cjc030_11050"
    INDEX 01 00:43:23
  TRACK 48 AUDIO
    TITLE "0:"
    INDEX 01 00:47:25
  TRACK 49 AUDIO
    TITLE "5:cjc030_11051"
    INDEX 01 00:47:32
  TRACK 50 AUDIO
    TITLE "0:"
    INDEX 01 00:48:48
  TRACK 51 AUDIO
    TITLE "6:cjc030_11052"
    INDEX 01 00:48:59
  TRACK 52 AUDIO
    TITLE "0:"
    INDEX 01 00:50:29
  TRACK 53 AUDIO
    TITLE "3:cjc030_11053"
    INDEX 01 00:51:01
  TRACK 54 AUDIO
    TITLE "0:"
    INDEX 01 00:52:12
  TRACK 55 AUDIO
    TITLE "4:cjc030_11054"
    INDEX 01 00:52:24
  TRACK 56 AUDIO
    TITLE "0:"
    INDEX 01 00:53:25
  TRACK 57 AUDIO
    TITLE "5:cjc030_11055"
    INDEX 01 00:53:35
  TRACK 58 AUDIO
    TITLE "0:"
    INDEX 01 00:54:50
  TRACK 59 AUDIO
    TITLE "6:cjc030_11056"
    INDEX 01 00:54:60
  TRACK 60 AUDIO
    TITLE "0:"
    INDEX 01 00:56:74
  TRACK 61 AUDIO
    TITLE "3:cjc030_11057"
    INDEX 01 00:57:48
  TRACK 62 AUDIO
    TITLE "0:"
    INDEX 01 00:58:67
  TRACK 63 AUDIO
    TITLE "4:cjc030_11058"
    INDEX 01 00:59:02
  TRACK 64 AUDIO
    TITLE "0:"
    INDEX 01 01:00:25
  TRACK 65 AUDIO
    TITLE "5:cjc030_11059"
    INDEX 01 01:00:29
  TRACK 66 AUDIO
    TITLE "0:"
    INDEX 01 01:01:56
  TRACK 67 AUDIO
    TITLE "6:cjc030_11060"
    INDEX 01 01:01:66
  TRACK 68 AUDIO
    TITLE "0:"
    INDEX 01 01:06:38
